<mxfile host="app.diagrams.net" agent="Mozilla/5.0 (Macintosh; Intel Mac OS X 10_15_7) AppleWebKit/537.36 (KHTML, like Gecko) Chrome/131.0.0.0 Safari/537.36" version="26.0.2">
  <diagram name="Page-1" id="Lnq9ZHY8k1LSBniUlyPh">
    <mxGraphModel dx="454" dy="304" grid="1" gridSize="1" guides="1" tooltips="1" connect="1" arrows="1" fold="1" page="1" pageScale="1" pageWidth="850" pageHeight="1100" math="0" shadow="0">
      <root>
        <mxCell id="0" />
        <mxCell id="1" parent="0" />
        <mxCell id="1BW4OrDuWjj_WiHF_ftf-129" style="edgeStyle=orthogonalEdgeStyle;rounded=0;orthogonalLoop=1;jettySize=auto;html=1;exitX=0.5;exitY=1;exitDx=0;exitDy=0;endArrow=none;endFill=0;" parent="1" source="kr_W2gvDXn8DfY-FKdrc-157" edge="1">
          <mxGeometry relative="1" as="geometry">
            <mxPoint x="893" y="430" as="targetPoint" />
          </mxGeometry>
        </mxCell>
        <mxCell id="1BW4OrDuWjj_WiHF_ftf-130" value="fetch" style="edgeLabel;html=1;align=center;verticalAlign=middle;resizable=0;points=[];" parent="1BW4OrDuWjj_WiHF_ftf-129" vertex="1" connectable="0">
          <mxGeometry x="0.3832" relative="1" as="geometry">
            <mxPoint x="-1" y="10" as="offset" />
          </mxGeometry>
        </mxCell>
        <mxCell id="kr_W2gvDXn8DfY-FKdrc-157" value="&lt;div&gt;&lt;span style=&quot;background-color: initial;&quot;&gt;memory&lt;/span&gt;&lt;/div&gt;&lt;div&gt;(ROM)&lt;/div&gt;&lt;div&gt;&lt;br&gt;&lt;/div&gt;&lt;div&gt;&lt;br&gt;&lt;/div&gt;&lt;div&gt;&lt;br&gt;&lt;/div&gt;&lt;div&gt;&lt;br&gt;&lt;/div&gt;&lt;div&gt;2&lt;sup&gt;12&lt;/sup&gt;&amp;nbsp;addresses&lt;/div&gt;&lt;div&gt;16 bit width&lt;/div&gt;&lt;div&gt;4KB&lt;/div&gt;" style="rounded=0;whiteSpace=wrap;html=1;" parent="1" vertex="1">
          <mxGeometry x="834" y="36" width="116" height="363" as="geometry" />
        </mxCell>
        <mxCell id="1BW4OrDuWjj_WiHF_ftf-104" value="program counter" style="rounded=0;whiteSpace=wrap;html=1;" parent="1" vertex="1">
          <mxGeometry x="549" y="113.5" width="109" height="26" as="geometry" />
        </mxCell>
        <mxCell id="1BW4OrDuWjj_WiHF_ftf-137" style="edgeStyle=orthogonalEdgeStyle;rounded=0;orthogonalLoop=1;jettySize=auto;html=1;entryX=1;entryY=0.5;entryDx=0;entryDy=0;" parent="1" source="1BW4OrDuWjj_WiHF_ftf-109" target="1BW4OrDuWjj_WiHF_ftf-136" edge="1">
          <mxGeometry relative="1" as="geometry" />
        </mxCell>
        <mxCell id="1BW4OrDuWjj_WiHF_ftf-109" value="instruction register" style="rounded=0;whiteSpace=wrap;html=1;" parent="1" vertex="1">
          <mxGeometry x="552" y="295.5" width="109" height="26" as="geometry" />
        </mxCell>
        <mxCell id="1BW4OrDuWjj_WiHF_ftf-116" style="edgeStyle=orthogonalEdgeStyle;rounded=0;orthogonalLoop=1;jettySize=auto;html=1;exitX=1;exitY=0.5;exitDx=0;exitDy=0;entryX=0;entryY=0.75;entryDx=0;entryDy=0;endArrow=none;endFill=0;startArrow=classic;startFill=1;" parent="1" source="1BW4OrDuWjj_WiHF_ftf-109" target="kr_W2gvDXn8DfY-FKdrc-157" edge="1">
          <mxGeometry relative="1" as="geometry">
            <mxPoint x="756" y="308.5" as="sourcePoint" />
          </mxGeometry>
        </mxCell>
        <mxCell id="0U2qP6XR2OY_gukqAAtL-2" value="data" style="edgeLabel;html=1;align=center;verticalAlign=middle;resizable=0;points=[];" parent="1BW4OrDuWjj_WiHF_ftf-116" vertex="1" connectable="0">
          <mxGeometry x="0.7698" relative="1" as="geometry">
            <mxPoint x="34" as="offset" />
          </mxGeometry>
        </mxCell>
        <mxCell id="1BW4OrDuWjj_WiHF_ftf-127" style="edgeStyle=orthogonalEdgeStyle;rounded=0;orthogonalLoop=1;jettySize=auto;html=1;entryX=0;entryY=0.25;entryDx=0;entryDy=0;exitX=1;exitY=0.5;exitDx=0;exitDy=0;" parent="1" source="1BW4OrDuWjj_WiHF_ftf-104" target="kr_W2gvDXn8DfY-FKdrc-157" edge="1">
          <mxGeometry relative="1" as="geometry">
            <mxPoint x="755" y="127" as="sourcePoint" />
          </mxGeometry>
        </mxCell>
        <mxCell id="0U2qP6XR2OY_gukqAAtL-1" value="address" style="edgeLabel;html=1;align=center;verticalAlign=middle;resizable=0;points=[];" parent="1BW4OrDuWjj_WiHF_ftf-127" vertex="1" connectable="0">
          <mxGeometry x="0.7582" y="3" relative="1" as="geometry">
            <mxPoint x="44" y="3" as="offset" />
          </mxGeometry>
        </mxCell>
        <mxCell id="1BW4OrDuWjj_WiHF_ftf-133" style="edgeStyle=orthogonalEdgeStyle;rounded=0;orthogonalLoop=1;jettySize=auto;html=1;exitX=1;exitY=0.25;exitDx=0;exitDy=0;" parent="1" source="1BW4OrDuWjj_WiHF_ftf-128" edge="1">
          <mxGeometry relative="1" as="geometry">
            <mxPoint x="318" y="30" as="targetPoint" />
          </mxGeometry>
        </mxCell>
        <mxCell id="1BW4OrDuWjj_WiHF_ftf-146" value="fetch" style="edgeLabel;html=1;align=center;verticalAlign=middle;resizable=0;points=[];" parent="1BW4OrDuWjj_WiHF_ftf-133" vertex="1" connectable="0">
          <mxGeometry x="0.8211" y="2" relative="1" as="geometry">
            <mxPoint x="22" y="2" as="offset" />
          </mxGeometry>
        </mxCell>
        <mxCell id="1BW4OrDuWjj_WiHF_ftf-134" style="edgeStyle=orthogonalEdgeStyle;rounded=0;orthogonalLoop=1;jettySize=auto;html=1;exitX=1;exitY=0.5;exitDx=0;exitDy=0;" parent="1" source="1BW4OrDuWjj_WiHF_ftf-128" edge="1">
          <mxGeometry relative="1" as="geometry">
            <mxPoint x="318" y="43.999999999999886" as="targetPoint" />
          </mxGeometry>
        </mxCell>
        <mxCell id="1BW4OrDuWjj_WiHF_ftf-135" style="edgeStyle=orthogonalEdgeStyle;rounded=0;orthogonalLoop=1;jettySize=auto;html=1;exitX=1;exitY=0.75;exitDx=0;exitDy=0;" parent="1" source="1BW4OrDuWjj_WiHF_ftf-128" edge="1">
          <mxGeometry relative="1" as="geometry">
            <mxPoint x="318" y="59.82051282051282" as="targetPoint" />
          </mxGeometry>
        </mxCell>
        <mxCell id="1BW4OrDuWjj_WiHF_ftf-177" style="edgeStyle=orthogonalEdgeStyle;rounded=0;orthogonalLoop=1;jettySize=auto;html=1;exitX=0;exitY=0.25;exitDx=0;exitDy=0;endArrow=none;endFill=0;startArrow=classic;startFill=1;" parent="1" source="1BW4OrDuWjj_WiHF_ftf-128" edge="1">
          <mxGeometry relative="1" as="geometry">
            <mxPoint x="58" y="29" as="targetPoint" />
          </mxGeometry>
        </mxCell>
        <mxCell id="1BW4OrDuWjj_WiHF_ftf-178" value="clock" style="edgeLabel;html=1;align=center;verticalAlign=middle;resizable=0;points=[];" parent="1BW4OrDuWjj_WiHF_ftf-177" vertex="1" connectable="0">
          <mxGeometry x="0.8332" y="-2" relative="1" as="geometry">
            <mxPoint as="offset" />
          </mxGeometry>
        </mxCell>
        <mxCell id="1BW4OrDuWjj_WiHF_ftf-180" style="edgeStyle=orthogonalEdgeStyle;rounded=0;orthogonalLoop=1;jettySize=auto;html=1;exitX=0;exitY=0.75;exitDx=0;exitDy=0;startArrow=classic;startFill=1;endArrow=none;endFill=0;" parent="1" source="1BW4OrDuWjj_WiHF_ftf-128" edge="1">
          <mxGeometry relative="1" as="geometry">
            <mxPoint x="63" y="60" as="targetPoint" />
          </mxGeometry>
        </mxCell>
        <mxCell id="1BW4OrDuWjj_WiHF_ftf-181" value="reset" style="edgeLabel;html=1;align=center;verticalAlign=middle;resizable=0;points=[];" parent="1BW4OrDuWjj_WiHF_ftf-180" vertex="1" connectable="0">
          <mxGeometry x="0.7795" y="-1" relative="1" as="geometry">
            <mxPoint x="-6" as="offset" />
          </mxGeometry>
        </mxCell>
        <mxCell id="1BW4OrDuWjj_WiHF_ftf-128" value="Next Control State Generator" style="rounded=1;whiteSpace=wrap;html=1;" parent="1" vertex="1">
          <mxGeometry x="148" y="15" width="120" height="60" as="geometry" />
        </mxCell>
        <mxCell id="1BW4OrDuWjj_WiHF_ftf-156" style="edgeStyle=orthogonalEdgeStyle;rounded=0;orthogonalLoop=1;jettySize=auto;html=1;entryX=1;entryY=0.5;entryDx=0;entryDy=0;" parent="1" source="1BW4OrDuWjj_WiHF_ftf-136" target="1BW4OrDuWjj_WiHF_ftf-153" edge="1">
          <mxGeometry relative="1" as="geometry" />
        </mxCell>
        <mxCell id="1BW4OrDuWjj_WiHF_ftf-136" value="Instruction Decoder" style="rounded=1;whiteSpace=wrap;html=1;" parent="1" vertex="1">
          <mxGeometry x="355" y="278.5" width="120" height="60" as="geometry" />
        </mxCell>
        <mxCell id="1BW4OrDuWjj_WiHF_ftf-145" value="memory enable" style="text;html=1;align=center;verticalAlign=middle;whiteSpace=wrap;rounded=0;" parent="1" vertex="1">
          <mxGeometry x="862" y="366" width="60" height="30" as="geometry" />
        </mxCell>
        <mxCell id="1BW4OrDuWjj_WiHF_ftf-147" value="decode" style="edgeLabel;html=1;align=center;verticalAlign=middle;resizable=0;points=[];" parent="1" vertex="1" connectable="0">
          <mxGeometry x="340.99916159920446" y="43.49927019764115" as="geometry" />
        </mxCell>
        <mxCell id="1BW4OrDuWjj_WiHF_ftf-148" value="execute" style="edgeLabel;html=1;align=center;verticalAlign=middle;resizable=0;points=[];" parent="1" vertex="1" connectable="0">
          <mxGeometry x="341.99916159920446" y="59.99927019764115" as="geometry" />
        </mxCell>
        <mxCell id="1BW4OrDuWjj_WiHF_ftf-182" style="edgeStyle=orthogonalEdgeStyle;rounded=0;orthogonalLoop=1;jettySize=auto;html=1;entryX=0;entryY=0.5;entryDx=0;entryDy=0;exitX=0.5;exitY=0;exitDx=0;exitDy=0;endArrow=none;endFill=0;" parent="1" source="1BW4OrDuWjj_WiHF_ftf-153" target="1BW4OrDuWjj_WiHF_ftf-173" edge="1">
          <mxGeometry relative="1" as="geometry" />
        </mxCell>
        <mxCell id="1BW4OrDuWjj_WiHF_ftf-153" value="Control Signal Generator" style="rounded=1;whiteSpace=wrap;html=1;" parent="1" vertex="1">
          <mxGeometry x="155" y="278.5" width="120" height="60" as="geometry" />
        </mxCell>
        <mxCell id="1BW4OrDuWjj_WiHF_ftf-172" value="" style="group" parent="1" vertex="1" connectable="0">
          <mxGeometry x="390" y="91" width="35" height="53" as="geometry" />
        </mxCell>
        <mxCell id="1BW4OrDuWjj_WiHF_ftf-173" value="" style="rounded=0;whiteSpace=wrap;html=1;" parent="1BW4OrDuWjj_WiHF_ftf-172" vertex="1">
          <mxGeometry y="18" width="35" height="35" as="geometry" />
        </mxCell>
        <mxCell id="1BW4OrDuWjj_WiHF_ftf-174" value="" style="triangle;whiteSpace=wrap;html=1;" parent="1BW4OrDuWjj_WiHF_ftf-172" vertex="1">
          <mxGeometry x="8" y="24" width="21" height="23" as="geometry" />
        </mxCell>
        <mxCell id="1BW4OrDuWjj_WiHF_ftf-175" value="" style="endArrow=none;html=1;rounded=0;entryX=0.5;entryY=0;entryDx=0;entryDy=0;" parent="1BW4OrDuWjj_WiHF_ftf-172" target="1BW4OrDuWjj_WiHF_ftf-173" edge="1">
          <mxGeometry width="50" height="50" relative="1" as="geometry">
            <mxPoint x="17" as="sourcePoint" />
            <mxPoint x="1" y="-7" as="targetPoint" />
          </mxGeometry>
        </mxCell>
        <mxCell id="1BW4OrDuWjj_WiHF_ftf-176" value="jump.out" style="edgeLabel;html=1;align=center;verticalAlign=middle;resizable=0;points=[];" parent="1BW4OrDuWjj_WiHF_ftf-175" vertex="1" connectable="0">
          <mxGeometry x="-0.8501" y="1" relative="1" as="geometry">
            <mxPoint as="offset" />
          </mxGeometry>
        </mxCell>
        <mxCell id="1BW4OrDuWjj_WiHF_ftf-183" style="edgeStyle=orthogonalEdgeStyle;rounded=0;orthogonalLoop=1;jettySize=auto;html=1;entryX=0;entryY=0.5;entryDx=0;entryDy=0;" parent="1" source="1BW4OrDuWjj_WiHF_ftf-173" target="1BW4OrDuWjj_WiHF_ftf-104" edge="1">
          <mxGeometry relative="1" as="geometry" />
        </mxCell>
        <mxCell id="1BW4OrDuWjj_WiHF_ftf-188" value="" style="endArrow=none;html=1;rounded=0;" parent="1" edge="1">
          <mxGeometry width="50" height="50" relative="1" as="geometry">
            <mxPoint x="738" y="317" as="sourcePoint" />
            <mxPoint x="758" y="300" as="targetPoint" />
          </mxGeometry>
        </mxCell>
        <mxCell id="1BW4OrDuWjj_WiHF_ftf-189" value="16" style="edgeLabel;html=1;align=center;verticalAlign=middle;resizable=0;points=[];" parent="1BW4OrDuWjj_WiHF_ftf-188" vertex="1" connectable="0">
          <mxGeometry x="0.437" y="-1" relative="1" as="geometry">
            <mxPoint x="3" y="9" as="offset" />
          </mxGeometry>
        </mxCell>
        <mxCell id="1BW4OrDuWjj_WiHF_ftf-192" value="" style="endArrow=none;html=1;rounded=0;" parent="1" edge="1">
          <mxGeometry width="50" height="50" relative="1" as="geometry">
            <mxPoint x="738" y="135" as="sourcePoint" />
            <mxPoint x="758" y="118" as="targetPoint" />
          </mxGeometry>
        </mxCell>
        <mxCell id="1BW4OrDuWjj_WiHF_ftf-193" value="12" style="edgeLabel;html=1;align=center;verticalAlign=middle;resizable=0;points=[];" parent="1BW4OrDuWjj_WiHF_ftf-192" vertex="1" connectable="0">
          <mxGeometry x="0.437" y="-1" relative="1" as="geometry">
            <mxPoint x="3" y="9" as="offset" />
          </mxGeometry>
        </mxCell>
        <mxCell id="1BW4OrDuWjj_WiHF_ftf-194" value="" style="endArrow=none;html=1;rounded=0;" parent="1" edge="1">
          <mxGeometry width="50" height="50" relative="1" as="geometry">
            <mxPoint x="274" y="134" as="sourcePoint" />
            <mxPoint x="294" y="117" as="targetPoint" />
          </mxGeometry>
        </mxCell>
        <mxCell id="1BW4OrDuWjj_WiHF_ftf-195" value="12" style="edgeLabel;html=1;align=center;verticalAlign=middle;resizable=0;points=[];" parent="1BW4OrDuWjj_WiHF_ftf-194" vertex="1" connectable="0">
          <mxGeometry x="0.437" y="-1" relative="1" as="geometry">
            <mxPoint x="3" y="10" as="offset" />
          </mxGeometry>
        </mxCell>
        <mxCell id="1BW4OrDuWjj_WiHF_ftf-242" value="" style="endArrow=none;html=1;rounded=0;" parent="1" edge="1">
          <mxGeometry width="50" height="50" relative="1" as="geometry">
            <mxPoint x="476" y="135" as="sourcePoint" />
            <mxPoint x="496" y="118" as="targetPoint" />
          </mxGeometry>
        </mxCell>
        <mxCell id="1BW4OrDuWjj_WiHF_ftf-243" value="12" style="edgeLabel;html=1;align=center;verticalAlign=middle;resizable=0;points=[];" parent="1BW4OrDuWjj_WiHF_ftf-242" vertex="1" connectable="0">
          <mxGeometry x="0.437" y="-1" relative="1" as="geometry">
            <mxPoint x="3" y="9" as="offset" />
          </mxGeometry>
        </mxCell>
        <mxCell id="tpnayZtEJHN_1LxH815h-15" value="" style="group" parent="1" vertex="1" connectable="0">
          <mxGeometry x="104" y="471" width="892" height="477" as="geometry" />
        </mxCell>
        <mxCell id="kr_W2gvDXn8DfY-FKdrc-2" value="register file&lt;div&gt;16x16&lt;/div&gt;" style="whiteSpace=wrap;html=1;aspect=fixed;" parent="tpnayZtEJHN_1LxH815h-15" vertex="1">
          <mxGeometry x="53" y="90" width="116" height="116" as="geometry" />
        </mxCell>
        <mxCell id="kr_W2gvDXn8DfY-FKdrc-7" value="" style="endArrow=classic;html=1;rounded=0;entryX=0;entryY=0.25;entryDx=0;entryDy=0;" parent="tpnayZtEJHN_1LxH815h-15" target="kr_W2gvDXn8DfY-FKdrc-2" edge="1">
          <mxGeometry width="50" height="50" relative="1" as="geometry">
            <mxPoint x="22" y="119" as="sourcePoint" />
            <mxPoint x="-49" y="107" as="targetPoint" />
          </mxGeometry>
        </mxCell>
        <mxCell id="kr_W2gvDXn8DfY-FKdrc-8" value="rwe" style="edgeLabel;html=1;align=center;verticalAlign=middle;resizable=0;points=[];" parent="kr_W2gvDXn8DfY-FKdrc-7" vertex="1" connectable="0">
          <mxGeometry x="-0.4686" y="-2" relative="1" as="geometry">
            <mxPoint x="-26" y="-3" as="offset" />
          </mxGeometry>
        </mxCell>
        <mxCell id="kr_W2gvDXn8DfY-FKdrc-11" value="" style="endArrow=classic;html=1;rounded=0;entryX=0.25;entryY=0;entryDx=0;entryDy=0;" parent="tpnayZtEJHN_1LxH815h-15" target="kr_W2gvDXn8DfY-FKdrc-2" edge="1">
          <mxGeometry width="50" height="50" relative="1" as="geometry">
            <mxPoint x="82" y="49" as="sourcePoint" />
            <mxPoint x="91" y="67" as="targetPoint" />
          </mxGeometry>
        </mxCell>
        <mxCell id="kr_W2gvDXn8DfY-FKdrc-43" value="X" style="edgeLabel;html=1;align=center;verticalAlign=middle;resizable=0;points=[];" parent="kr_W2gvDXn8DfY-FKdrc-11" vertex="1" connectable="0">
          <mxGeometry x="-0.7397" relative="1" as="geometry">
            <mxPoint y="-18" as="offset" />
          </mxGeometry>
        </mxCell>
        <mxCell id="kr_W2gvDXn8DfY-FKdrc-30" value="" style="endArrow=none;html=1;rounded=0;" parent="tpnayZtEJHN_1LxH815h-15" edge="1">
          <mxGeometry width="50" height="50" relative="1" as="geometry">
            <mxPoint x="73" y="71" as="sourcePoint" />
            <mxPoint x="90" y="57" as="targetPoint" />
          </mxGeometry>
        </mxCell>
        <mxCell id="kr_W2gvDXn8DfY-FKdrc-31" value="4" style="edgeLabel;html=1;align=center;verticalAlign=middle;resizable=0;points=[];" parent="kr_W2gvDXn8DfY-FKdrc-30" vertex="1" connectable="0">
          <mxGeometry x="0.437" y="-1" relative="1" as="geometry">
            <mxPoint x="3" y="9" as="offset" />
          </mxGeometry>
        </mxCell>
        <mxCell id="kr_W2gvDXn8DfY-FKdrc-44" value="" style="endArrow=classic;html=1;rounded=0;entryX=0.5;entryY=0;entryDx=0;entryDy=0;" parent="tpnayZtEJHN_1LxH815h-15" target="kr_W2gvDXn8DfY-FKdrc-2" edge="1">
          <mxGeometry width="50" height="50" relative="1" as="geometry">
            <mxPoint x="111" y="49" as="sourcePoint" />
            <mxPoint x="119" y="75" as="targetPoint" />
          </mxGeometry>
        </mxCell>
        <mxCell id="kr_W2gvDXn8DfY-FKdrc-45" value="Y" style="edgeLabel;html=1;align=center;verticalAlign=middle;resizable=0;points=[];" parent="kr_W2gvDXn8DfY-FKdrc-44" vertex="1" connectable="0">
          <mxGeometry x="-0.7397" relative="1" as="geometry">
            <mxPoint y="-18" as="offset" />
          </mxGeometry>
        </mxCell>
        <mxCell id="kr_W2gvDXn8DfY-FKdrc-46" value="" style="endArrow=classic;html=1;rounded=0;entryX=0.75;entryY=0;entryDx=0;entryDy=0;" parent="tpnayZtEJHN_1LxH815h-15" target="kr_W2gvDXn8DfY-FKdrc-2" edge="1">
          <mxGeometry width="50" height="50" relative="1" as="geometry">
            <mxPoint x="140" y="49" as="sourcePoint" />
            <mxPoint x="141" y="80" as="targetPoint" />
          </mxGeometry>
        </mxCell>
        <mxCell id="kr_W2gvDXn8DfY-FKdrc-47" value="Z" style="edgeLabel;html=1;align=center;verticalAlign=middle;resizable=0;points=[];" parent="kr_W2gvDXn8DfY-FKdrc-46" vertex="1" connectable="0">
          <mxGeometry x="-0.7397" relative="1" as="geometry">
            <mxPoint y="-18" as="offset" />
          </mxGeometry>
        </mxCell>
        <mxCell id="kr_W2gvDXn8DfY-FKdrc-50" value="" style="endArrow=none;html=1;rounded=0;" parent="tpnayZtEJHN_1LxH815h-15" edge="1">
          <mxGeometry width="50" height="50" relative="1" as="geometry">
            <mxPoint x="102.5" y="71" as="sourcePoint" />
            <mxPoint x="119.5" y="57" as="targetPoint" />
          </mxGeometry>
        </mxCell>
        <mxCell id="kr_W2gvDXn8DfY-FKdrc-51" value="4" style="edgeLabel;html=1;align=center;verticalAlign=middle;resizable=0;points=[];" parent="kr_W2gvDXn8DfY-FKdrc-50" vertex="1" connectable="0">
          <mxGeometry x="0.437" y="-1" relative="1" as="geometry">
            <mxPoint x="3" y="9" as="offset" />
          </mxGeometry>
        </mxCell>
        <mxCell id="kr_W2gvDXn8DfY-FKdrc-52" value="" style="endArrow=none;html=1;rounded=0;" parent="tpnayZtEJHN_1LxH815h-15" edge="1">
          <mxGeometry width="50" height="50" relative="1" as="geometry">
            <mxPoint x="132" y="70" as="sourcePoint" />
            <mxPoint x="148" y="57" as="targetPoint" />
          </mxGeometry>
        </mxCell>
        <mxCell id="kr_W2gvDXn8DfY-FKdrc-53" value="4" style="edgeLabel;html=1;align=center;verticalAlign=middle;resizable=0;points=[];" parent="kr_W2gvDXn8DfY-FKdrc-52" vertex="1" connectable="0">
          <mxGeometry x="0.437" y="-1" relative="1" as="geometry">
            <mxPoint x="3" y="9" as="offset" />
          </mxGeometry>
        </mxCell>
        <mxCell id="kr_W2gvDXn8DfY-FKdrc-56" value="" style="endArrow=none;html=1;rounded=0;exitX=1;exitY=0.25;exitDx=0;exitDy=0;entryX=-0.001;entryY=0.079;entryDx=0;entryDy=0;entryPerimeter=0;" parent="tpnayZtEJHN_1LxH815h-15" source="kr_W2gvDXn8DfY-FKdrc-2" target="kr_W2gvDXn8DfY-FKdrc-55" edge="1">
          <mxGeometry width="50" height="50" relative="1" as="geometry">
            <mxPoint x="299" y="247" as="sourcePoint" />
            <mxPoint x="349" y="197" as="targetPoint" />
          </mxGeometry>
        </mxCell>
        <mxCell id="kr_W2gvDXn8DfY-FKdrc-139" value="X" style="edgeLabel;html=1;align=center;verticalAlign=middle;resizable=0;points=[];" parent="kr_W2gvDXn8DfY-FKdrc-56" vertex="1" connectable="0">
          <mxGeometry x="-0.9896" relative="1" as="geometry">
            <mxPoint x="-13" as="offset" />
          </mxGeometry>
        </mxCell>
        <mxCell id="kr_W2gvDXn8DfY-FKdrc-59" value="" style="endArrow=none;html=1;rounded=0;" parent="tpnayZtEJHN_1LxH815h-15" edge="1">
          <mxGeometry width="50" height="50" relative="1" as="geometry">
            <mxPoint x="181" y="126" as="sourcePoint" />
            <mxPoint x="198" y="112" as="targetPoint" />
          </mxGeometry>
        </mxCell>
        <mxCell id="kr_W2gvDXn8DfY-FKdrc-60" value="16" style="edgeLabel;html=1;align=center;verticalAlign=middle;resizable=0;points=[];" parent="kr_W2gvDXn8DfY-FKdrc-59" vertex="1" connectable="0">
          <mxGeometry x="0.437" y="-1" relative="1" as="geometry">
            <mxPoint x="3" y="9" as="offset" />
          </mxGeometry>
        </mxCell>
        <mxCell id="kr_W2gvDXn8DfY-FKdrc-78" value="" style="endArrow=none;html=1;rounded=0;exitX=1;exitY=0.75;exitDx=0;exitDy=0;entryX=0.002;entryY=0.239;entryDx=0;entryDy=0;entryPerimeter=0;" parent="tpnayZtEJHN_1LxH815h-15" source="kr_W2gvDXn8DfY-FKdrc-2" target="kr_W2gvDXn8DfY-FKdrc-55" edge="1">
          <mxGeometry width="50" height="50" relative="1" as="geometry">
            <mxPoint x="198" y="187" as="sourcePoint" />
            <mxPoint x="650" y="176.4999999999999" as="targetPoint" />
          </mxGeometry>
        </mxCell>
        <mxCell id="kr_W2gvDXn8DfY-FKdrc-140" value="Y" style="edgeLabel;html=1;align=center;verticalAlign=middle;resizable=0;points=[];" parent="kr_W2gvDXn8DfY-FKdrc-78" vertex="1" connectable="0">
          <mxGeometry x="-0.9778" y="1" relative="1" as="geometry">
            <mxPoint x="-14" as="offset" />
          </mxGeometry>
        </mxCell>
        <mxCell id="kr_W2gvDXn8DfY-FKdrc-87" value="" style="endArrow=none;html=1;rounded=0;entryX=0;entryY=0.5;entryDx=0;entryDy=0;" parent="tpnayZtEJHN_1LxH815h-15" target="kr_W2gvDXn8DfY-FKdrc-81" edge="1">
          <mxGeometry width="50" height="50" relative="1" as="geometry">
            <mxPoint x="10" y="373" as="sourcePoint" />
            <mxPoint x="721" y="378" as="targetPoint" />
          </mxGeometry>
        </mxCell>
        <mxCell id="kr_W2gvDXn8DfY-FKdrc-92" value="" style="endArrow=none;html=1;rounded=0;" parent="tpnayZtEJHN_1LxH815h-15" edge="1">
          <mxGeometry width="50" height="50" relative="1" as="geometry">
            <mxPoint x="181" y="183.5" as="sourcePoint" />
            <mxPoint x="198" y="169.5" as="targetPoint" />
          </mxGeometry>
        </mxCell>
        <mxCell id="kr_W2gvDXn8DfY-FKdrc-93" value="16" style="edgeLabel;html=1;align=center;verticalAlign=middle;resizable=0;points=[];" parent="kr_W2gvDXn8DfY-FKdrc-92" vertex="1" connectable="0">
          <mxGeometry x="0.437" y="-1" relative="1" as="geometry">
            <mxPoint x="3" y="9" as="offset" />
          </mxGeometry>
        </mxCell>
        <mxCell id="kr_W2gvDXn8DfY-FKdrc-111" value="" style="endArrow=none;html=1;rounded=0;" parent="tpnayZtEJHN_1LxH815h-15" edge="1">
          <mxGeometry width="50" height="50" relative="1" as="geometry">
            <mxPoint x="10" y="373" as="sourcePoint" />
            <mxPoint x="11" y="177" as="targetPoint" />
          </mxGeometry>
        </mxCell>
        <mxCell id="kr_W2gvDXn8DfY-FKdrc-113" value="" style="endArrow=none;html=1;rounded=0;entryX=0;entryY=0.75;entryDx=0;entryDy=0;" parent="tpnayZtEJHN_1LxH815h-15" target="kr_W2gvDXn8DfY-FKdrc-2" edge="1">
          <mxGeometry width="50" height="50" relative="1" as="geometry">
            <mxPoint x="11" y="177" as="sourcePoint" />
            <mxPoint x="41" y="158" as="targetPoint" />
          </mxGeometry>
        </mxCell>
        <mxCell id="kr_W2gvDXn8DfY-FKdrc-141" value="Z" style="edgeLabel;html=1;align=center;verticalAlign=middle;resizable=0;points=[];" parent="kr_W2gvDXn8DfY-FKdrc-113" vertex="1" connectable="0">
          <mxGeometry x="0.6605" relative="1" as="geometry">
            <mxPoint x="15" as="offset" />
          </mxGeometry>
        </mxCell>
        <mxCell id="kr_W2gvDXn8DfY-FKdrc-125" value="" style="endArrow=none;html=1;rounded=0;" parent="tpnayZtEJHN_1LxH815h-15" edge="1">
          <mxGeometry width="50" height="50" relative="1" as="geometry">
            <mxPoint x="373" y="213" as="sourcePoint" />
            <mxPoint x="393" y="196" as="targetPoint" />
          </mxGeometry>
        </mxCell>
        <mxCell id="kr_W2gvDXn8DfY-FKdrc-126" value="16" style="edgeLabel;html=1;align=center;verticalAlign=middle;resizable=0;points=[];" parent="kr_W2gvDXn8DfY-FKdrc-125" vertex="1" connectable="0">
          <mxGeometry x="0.437" y="-1" relative="1" as="geometry">
            <mxPoint x="3" y="9" as="offset" />
          </mxGeometry>
        </mxCell>
        <mxCell id="kr_W2gvDXn8DfY-FKdrc-137" value="" style="endArrow=none;html=1;rounded=0;" parent="tpnayZtEJHN_1LxH815h-15" edge="1">
          <mxGeometry width="50" height="50" relative="1" as="geometry">
            <mxPoint y="269" as="sourcePoint" />
            <mxPoint x="20" y="252" as="targetPoint" />
          </mxGeometry>
        </mxCell>
        <mxCell id="kr_W2gvDXn8DfY-FKdrc-138" value="16" style="edgeLabel;html=1;align=center;verticalAlign=middle;resizable=0;points=[];" parent="kr_W2gvDXn8DfY-FKdrc-137" vertex="1" connectable="0">
          <mxGeometry x="0.437" y="-1" relative="1" as="geometry">
            <mxPoint x="3" y="9" as="offset" />
          </mxGeometry>
        </mxCell>
        <mxCell id="kr_W2gvDXn8DfY-FKdrc-151" style="edgeStyle=orthogonalEdgeStyle;rounded=0;orthogonalLoop=1;jettySize=auto;html=1;endArrow=none;endFill=0;" parent="tpnayZtEJHN_1LxH815h-15" source="kr_W2gvDXn8DfY-FKdrc-144" edge="1">
          <mxGeometry relative="1" as="geometry">
            <mxPoint x="343.5" y="177" as="targetPoint" />
          </mxGeometry>
        </mxCell>
        <mxCell id="kr_W2gvDXn8DfY-FKdrc-144" value="immediate register" style="rounded=0;whiteSpace=wrap;html=1;" parent="tpnayZtEJHN_1LxH815h-15" vertex="1">
          <mxGeometry x="289" y="59" width="109" height="26" as="geometry" />
        </mxCell>
        <mxCell id="kr_W2gvDXn8DfY-FKdrc-145" value="" style="endArrow=none;html=1;rounded=0;entryX=0;entryY=0.5;entryDx=0;entryDy=0;endFill=0;" parent="tpnayZtEJHN_1LxH815h-15" target="kr_W2gvDXn8DfY-FKdrc-144" edge="1">
          <mxGeometry width="50" height="50" relative="1" as="geometry">
            <mxPoint x="252" y="72" as="sourcePoint" />
            <mxPoint x="282" y="71" as="targetPoint" />
          </mxGeometry>
        </mxCell>
        <mxCell id="kr_W2gvDXn8DfY-FKdrc-146" value="imm.en" style="edgeLabel;html=1;align=center;verticalAlign=middle;resizable=0;points=[];" parent="kr_W2gvDXn8DfY-FKdrc-145" vertex="1" connectable="0">
          <mxGeometry x="-0.4686" y="-2" relative="1" as="geometry">
            <mxPoint x="-26" y="-3" as="offset" />
          </mxGeometry>
        </mxCell>
        <mxCell id="kr_W2gvDXn8DfY-FKdrc-149" value="" style="endArrow=none;html=1;rounded=0;exitX=0.5;exitY=0;exitDx=0;exitDy=0;" parent="tpnayZtEJHN_1LxH815h-15" source="kr_W2gvDXn8DfY-FKdrc-144" edge="1">
          <mxGeometry width="50" height="50" relative="1" as="geometry">
            <mxPoint x="329" y="56" as="sourcePoint" />
            <mxPoint x="343" y="22" as="targetPoint" />
          </mxGeometry>
        </mxCell>
        <mxCell id="kr_W2gvDXn8DfY-FKdrc-150" value="imm.va" style="edgeLabel;html=1;align=center;verticalAlign=middle;resizable=0;points=[];" parent="kr_W2gvDXn8DfY-FKdrc-149" vertex="1" connectable="0">
          <mxGeometry x="0.7343" relative="1" as="geometry">
            <mxPoint y="-12" as="offset" />
          </mxGeometry>
        </mxCell>
        <mxCell id="1BW4OrDuWjj_WiHF_ftf-155" value="jump unit" style="shape=trapezoid;perimeter=trapezoidPerimeter;whiteSpace=wrap;html=1;fixedSize=1;" parent="tpnayZtEJHN_1LxH815h-15" vertex="1">
          <mxGeometry x="454" y="23" width="146" height="35" as="geometry" />
        </mxCell>
        <mxCell id="1BW4OrDuWjj_WiHF_ftf-159" value="" style="endArrow=none;html=1;rounded=0;entryX=0.75;entryY=1;entryDx=0;entryDy=0;" parent="tpnayZtEJHN_1LxH815h-15" target="1BW4OrDuWjj_WiHF_ftf-155" edge="1">
          <mxGeometry width="50" height="50" relative="1" as="geometry">
            <mxPoint x="564" y="119" as="sourcePoint" />
            <mxPoint x="564" y="60" as="targetPoint" />
          </mxGeometry>
        </mxCell>
        <mxCell id="1BW4OrDuWjj_WiHF_ftf-160" value="" style="endArrow=none;html=1;rounded=0;entryX=0;entryY=0.5;entryDx=0;entryDy=0;" parent="tpnayZtEJHN_1LxH815h-15" target="1BW4OrDuWjj_WiHF_ftf-155" edge="1">
          <mxGeometry width="50" height="50" relative="1" as="geometry">
            <mxPoint x="443" y="41" as="sourcePoint" />
            <mxPoint x="460" y="-5" as="targetPoint" />
          </mxGeometry>
        </mxCell>
        <mxCell id="1BW4OrDuWjj_WiHF_ftf-161" value="jump.en" style="edgeLabel;html=1;align=center;verticalAlign=middle;resizable=0;points=[];" parent="1BW4OrDuWjj_WiHF_ftf-160" vertex="1" connectable="0">
          <mxGeometry x="0.4697" y="-1" relative="1" as="geometry">
            <mxPoint x="-31" y="-2" as="offset" />
          </mxGeometry>
        </mxCell>
        <mxCell id="1BW4OrDuWjj_WiHF_ftf-162" value="" style="endArrow=none;html=1;rounded=0;exitX=1;exitY=0.25;exitDx=0;exitDy=0;" parent="tpnayZtEJHN_1LxH815h-15" source="1BW4OrDuWjj_WiHF_ftf-155" edge="1">
          <mxGeometry width="50" height="50" relative="1" as="geometry">
            <mxPoint x="616" y="42" as="sourcePoint" />
            <mxPoint x="617" y="33" as="targetPoint" />
          </mxGeometry>
        </mxCell>
        <mxCell id="1BW4OrDuWjj_WiHF_ftf-163" value="jump.type" style="edgeLabel;html=1;align=center;verticalAlign=middle;resizable=0;points=[];" parent="1BW4OrDuWjj_WiHF_ftf-162" vertex="1" connectable="0">
          <mxGeometry x="0.4931" y="1" relative="1" as="geometry">
            <mxPoint x="34" y="1" as="offset" />
          </mxGeometry>
        </mxCell>
        <mxCell id="1BW4OrDuWjj_WiHF_ftf-166" value="" style="endArrow=none;html=1;rounded=0;" parent="tpnayZtEJHN_1LxH815h-15" edge="1">
          <mxGeometry width="50" height="50" relative="1" as="geometry">
            <mxPoint x="553" y="84" as="sourcePoint" />
            <mxPoint x="573" y="67" as="targetPoint" />
          </mxGeometry>
        </mxCell>
        <mxCell id="1BW4OrDuWjj_WiHF_ftf-167" value="16" style="edgeLabel;html=1;align=center;verticalAlign=middle;resizable=0;points=[];" parent="1BW4OrDuWjj_WiHF_ftf-166" vertex="1" connectable="0">
          <mxGeometry x="0.437" y="-1" relative="1" as="geometry">
            <mxPoint x="3" y="9" as="offset" />
          </mxGeometry>
        </mxCell>
        <mxCell id="1BW4OrDuWjj_WiHF_ftf-168" value="" style="endArrow=none;html=1;rounded=0;exitX=0.5;exitY=0;exitDx=0;exitDy=0;" parent="tpnayZtEJHN_1LxH815h-15" source="1BW4OrDuWjj_WiHF_ftf-155" edge="1">
          <mxGeometry width="50" height="50" relative="1" as="geometry">
            <mxPoint x="519" y="16" as="sourcePoint" />
            <mxPoint x="526" as="targetPoint" />
          </mxGeometry>
        </mxCell>
        <mxCell id="1BW4OrDuWjj_WiHF_ftf-170" value="jump.out" style="edgeLabel;html=1;align=center;verticalAlign=middle;resizable=0;points=[];" parent="1BW4OrDuWjj_WiHF_ftf-168" vertex="1" connectable="0">
          <mxGeometry x="0.1016" relative="1" as="geometry">
            <mxPoint y="-20" as="offset" />
          </mxGeometry>
        </mxCell>
        <mxCell id="1BW4OrDuWjj_WiHF_ftf-238" value="" style="endArrow=none;html=1;rounded=0;" parent="tpnayZtEJHN_1LxH815h-15" edge="1">
          <mxGeometry width="50" height="50" relative="1" as="geometry">
            <mxPoint x="594" y="42" as="sourcePoint" />
            <mxPoint x="614" y="25" as="targetPoint" />
          </mxGeometry>
        </mxCell>
        <mxCell id="1BW4OrDuWjj_WiHF_ftf-239" value="2" style="edgeLabel;html=1;align=center;verticalAlign=middle;resizable=0;points=[];" parent="1BW4OrDuWjj_WiHF_ftf-238" vertex="1" connectable="0">
          <mxGeometry x="0.437" y="-1" relative="1" as="geometry">
            <mxPoint x="3" y="9" as="offset" />
          </mxGeometry>
        </mxCell>
        <mxCell id="tpnayZtEJHN_1LxH815h-5" style="edgeStyle=orthogonalEdgeStyle;rounded=0;orthogonalLoop=1;jettySize=auto;html=1;entryX=0.75;entryY=1;entryDx=0;entryDy=0;" parent="tpnayZtEJHN_1LxH815h-15" target="tpnayZtEJHN_1LxH815h-3" edge="1">
          <mxGeometry relative="1" as="geometry">
            <mxPoint x="384" y="177" as="sourcePoint" />
            <Array as="points">
              <mxPoint x="384" y="210" />
              <mxPoint x="384" y="210" />
            </Array>
          </mxGeometry>
        </mxCell>
        <mxCell id="tpnayZtEJHN_1LxH815h-7" style="edgeStyle=orthogonalEdgeStyle;rounded=0;orthogonalLoop=1;jettySize=auto;html=1;entryX=0.25;entryY=1;entryDx=0;entryDy=0;" parent="tpnayZtEJHN_1LxH815h-15" target="tpnayZtEJHN_1LxH815h-3" edge="1">
          <mxGeometry relative="1" as="geometry">
            <mxPoint x="456" y="117" as="sourcePoint" />
          </mxGeometry>
        </mxCell>
        <mxCell id="tpnayZtEJHN_1LxH815h-12" style="edgeStyle=orthogonalEdgeStyle;rounded=0;orthogonalLoop=1;jettySize=auto;html=1;exitX=0.5;exitY=0;exitDx=0;exitDy=0;" parent="tpnayZtEJHN_1LxH815h-15" source="tpnayZtEJHN_1LxH815h-3" edge="1">
          <mxGeometry relative="1" as="geometry">
            <mxPoint x="420.04761904761904" y="376" as="targetPoint" />
          </mxGeometry>
        </mxCell>
        <mxCell id="K1SHeTAgsthcZovIU9Qf-1" style="edgeStyle=orthogonalEdgeStyle;rounded=0;orthogonalLoop=1;jettySize=auto;html=1;exitX=0;exitY=0.5;exitDx=0;exitDy=0;endArrow=none;endFill=0;" edge="1" parent="tpnayZtEJHN_1LxH815h-15" source="tpnayZtEJHN_1LxH815h-3">
          <mxGeometry relative="1" as="geometry">
            <mxPoint x="521" y="263" as="targetPoint" />
          </mxGeometry>
        </mxCell>
        <mxCell id="K1SHeTAgsthcZovIU9Qf-4" value="alu.func" style="edgeLabel;html=1;align=center;verticalAlign=middle;resizable=0;points=[];" vertex="1" connectable="0" parent="K1SHeTAgsthcZovIU9Qf-1">
          <mxGeometry x="0.8056" y="-1" relative="1" as="geometry">
            <mxPoint x="25" y="-2" as="offset" />
          </mxGeometry>
        </mxCell>
        <mxCell id="K1SHeTAgsthcZovIU9Qf-5" style="edgeStyle=orthogonalEdgeStyle;rounded=0;orthogonalLoop=1;jettySize=auto;html=1;exitX=1;exitY=0.5;exitDx=0;exitDy=0;endArrow=none;endFill=0;" edge="1" parent="tpnayZtEJHN_1LxH815h-15" source="tpnayZtEJHN_1LxH815h-3">
          <mxGeometry relative="1" as="geometry">
            <mxPoint x="324" y="264" as="targetPoint" />
          </mxGeometry>
        </mxCell>
        <mxCell id="K1SHeTAgsthcZovIU9Qf-6" value="alu.en" style="edgeLabel;html=1;align=center;verticalAlign=middle;resizable=0;points=[];" vertex="1" connectable="0" parent="K1SHeTAgsthcZovIU9Qf-5">
          <mxGeometry x="0.9823" y="-3" relative="1" as="geometry">
            <mxPoint x="-14" y="-1" as="offset" />
          </mxGeometry>
        </mxCell>
        <mxCell id="tpnayZtEJHN_1LxH815h-3" value="ALU" style="shape=trapezoid;perimeter=trapezoidPerimeter;whiteSpace=wrap;html=1;fixedSize=1;direction=west;" parent="tpnayZtEJHN_1LxH815h-15" vertex="1">
          <mxGeometry x="347" y="246" width="146" height="35" as="geometry" />
        </mxCell>
        <mxCell id="tpnayZtEJHN_1LxH815h-10" value="" style="endArrow=none;html=1;rounded=0;" parent="tpnayZtEJHN_1LxH815h-15" edge="1">
          <mxGeometry width="50" height="50" relative="1" as="geometry">
            <mxPoint x="445" y="211" as="sourcePoint" />
            <mxPoint x="465" y="194" as="targetPoint" />
          </mxGeometry>
        </mxCell>
        <mxCell id="tpnayZtEJHN_1LxH815h-11" value="16" style="edgeLabel;html=1;align=center;verticalAlign=middle;resizable=0;points=[];" parent="tpnayZtEJHN_1LxH815h-10" vertex="1" connectable="0">
          <mxGeometry x="0.437" y="-1" relative="1" as="geometry">
            <mxPoint x="3" y="9" as="offset" />
          </mxGeometry>
        </mxCell>
        <mxCell id="tpnayZtEJHN_1LxH815h-13" value="" style="endArrow=none;html=1;rounded=0;" parent="tpnayZtEJHN_1LxH815h-15" edge="1">
          <mxGeometry width="50" height="50" relative="1" as="geometry">
            <mxPoint x="410" y="326" as="sourcePoint" />
            <mxPoint x="430" y="309" as="targetPoint" />
          </mxGeometry>
        </mxCell>
        <mxCell id="tpnayZtEJHN_1LxH815h-14" value="16" style="edgeLabel;html=1;align=center;verticalAlign=middle;resizable=0;points=[];" parent="tpnayZtEJHN_1LxH815h-13" vertex="1" connectable="0">
          <mxGeometry x="0.437" y="-1" relative="1" as="geometry">
            <mxPoint x="3" y="9" as="offset" />
          </mxGeometry>
        </mxCell>
        <mxCell id="kr_W2gvDXn8DfY-FKdrc-55" value="memory&lt;div&gt;&lt;br&gt;&lt;/div&gt;&lt;div&gt;&lt;br&gt;&lt;/div&gt;&lt;div&gt;&lt;br&gt;&lt;/div&gt;&lt;div&gt;&lt;br&gt;&lt;/div&gt;&lt;div&gt;&lt;div&gt;&lt;br&gt;&lt;/div&gt;&lt;div&gt;2&lt;sup&gt;16&lt;/sup&gt;&amp;nbsp;addresses&lt;/div&gt;&lt;div&gt;16 bit width&lt;/div&gt;&lt;div&gt;132KB&lt;/div&gt;&lt;/div&gt;" style="rounded=0;whiteSpace=wrap;html=1;" parent="tpnayZtEJHN_1LxH815h-15" vertex="1">
          <mxGeometry x="776" y="90" width="116" height="363" as="geometry" />
        </mxCell>
        <mxCell id="kr_W2gvDXn8DfY-FKdrc-67" value="address" style="text;html=1;align=center;verticalAlign=middle;resizable=0;points=[];autosize=1;strokeColor=none;fillColor=none;" parent="tpnayZtEJHN_1LxH815h-15" vertex="1">
          <mxGeometry x="771" y="107" width="62" height="27" as="geometry" />
        </mxCell>
        <mxCell id="kr_W2gvDXn8DfY-FKdrc-81" value="" style="rounded=0;whiteSpace=wrap;html=1;" parent="tpnayZtEJHN_1LxH815h-15" vertex="1">
          <mxGeometry x="652" y="360" width="35" height="35" as="geometry" />
        </mxCell>
        <mxCell id="kr_W2gvDXn8DfY-FKdrc-82" value="" style="triangle;whiteSpace=wrap;html=1;rotation=-180;" parent="tpnayZtEJHN_1LxH815h-15" vertex="1">
          <mxGeometry x="659" y="366" width="21" height="23" as="geometry" />
        </mxCell>
        <mxCell id="kr_W2gvDXn8DfY-FKdrc-84" value="" style="endArrow=none;html=1;rounded=0;entryX=1;entryY=0.5;entryDx=0;entryDy=0;exitX=-0.004;exitY=0.79;exitDx=0;exitDy=0;exitPerimeter=0;" parent="tpnayZtEJHN_1LxH815h-15" target="kr_W2gvDXn8DfY-FKdrc-81" edge="1" source="kr_W2gvDXn8DfY-FKdrc-55">
          <mxGeometry width="50" height="50" relative="1" as="geometry">
            <mxPoint x="727" y="377.44000000000005" as="sourcePoint" />
            <mxPoint x="688" y="377.44000000000005" as="targetPoint" />
          </mxGeometry>
        </mxCell>
        <mxCell id="kr_W2gvDXn8DfY-FKdrc-104" value="" style="endArrow=none;html=1;rounded=0;entryX=0.5;entryY=1;entryDx=0;entryDy=0;" parent="tpnayZtEJHN_1LxH815h-15" target="kr_W2gvDXn8DfY-FKdrc-81" edge="1">
          <mxGeometry width="50" height="50" relative="1" as="geometry">
            <mxPoint x="670" y="406" as="sourcePoint" />
            <mxPoint x="670" y="424" as="targetPoint" />
          </mxGeometry>
        </mxCell>
        <mxCell id="kr_W2gvDXn8DfY-FKdrc-105" value="mem.ld_en" style="edgeLabel;html=1;align=center;verticalAlign=middle;resizable=0;points=[];" parent="kr_W2gvDXn8DfY-FKdrc-104" vertex="1" connectable="0">
          <mxGeometry x="-0.8501" y="1" relative="1" as="geometry">
            <mxPoint x="2" as="offset" />
          </mxGeometry>
        </mxCell>
        <mxCell id="kr_W2gvDXn8DfY-FKdrc-116" value="" style="endArrow=none;html=1;rounded=0;entryX=0.25;entryY=1;entryDx=0;entryDy=0;" parent="tpnayZtEJHN_1LxH815h-15" target="kr_W2gvDXn8DfY-FKdrc-55" edge="1">
          <mxGeometry width="50" height="50" relative="1" as="geometry">
            <mxPoint x="805" y="477" as="sourcePoint" />
            <mxPoint x="824" y="482" as="targetPoint" />
          </mxGeometry>
        </mxCell>
        <mxCell id="kr_W2gvDXn8DfY-FKdrc-117" value="mem.rwe" style="edgeLabel;html=1;align=center;verticalAlign=middle;resizable=0;points=[];" parent="kr_W2gvDXn8DfY-FKdrc-116" vertex="1" connectable="0">
          <mxGeometry x="-0.4744" relative="1" as="geometry">
            <mxPoint as="offset" />
          </mxGeometry>
        </mxCell>
        <mxCell id="kr_W2gvDXn8DfY-FKdrc-118" value="" style="endArrow=none;html=1;rounded=0;entryX=0.75;entryY=1;entryDx=0;entryDy=0;" parent="tpnayZtEJHN_1LxH815h-15" target="kr_W2gvDXn8DfY-FKdrc-55" edge="1">
          <mxGeometry width="50" height="50" relative="1" as="geometry">
            <mxPoint x="863" y="477" as="sourcePoint" />
            <mxPoint x="866" y="455" as="targetPoint" />
          </mxGeometry>
        </mxCell>
        <mxCell id="kr_W2gvDXn8DfY-FKdrc-119" value="mem.en" style="edgeLabel;html=1;align=center;verticalAlign=middle;resizable=0;points=[];" parent="kr_W2gvDXn8DfY-FKdrc-118" vertex="1" connectable="0">
          <mxGeometry x="-0.4744" relative="1" as="geometry">
            <mxPoint as="offset" />
          </mxGeometry>
        </mxCell>
        <mxCell id="K1SHeTAgsthcZovIU9Qf-2" value="" style="endArrow=none;html=1;rounded=0;" edge="1" parent="tpnayZtEJHN_1LxH815h-15">
          <mxGeometry width="50" height="50" relative="1" as="geometry">
            <mxPoint x="492" y="272" as="sourcePoint" />
            <mxPoint x="512" y="255" as="targetPoint" />
          </mxGeometry>
        </mxCell>
        <mxCell id="K1SHeTAgsthcZovIU9Qf-3" value="3" style="edgeLabel;html=1;align=center;verticalAlign=middle;resizable=0;points=[];" vertex="1" connectable="0" parent="K1SHeTAgsthcZovIU9Qf-2">
          <mxGeometry x="0.437" y="-1" relative="1" as="geometry">
            <mxPoint y="10" as="offset" />
          </mxGeometry>
        </mxCell>
        <mxCell id="K1SHeTAgsthcZovIU9Qf-9" value="data in" style="text;html=1;align=center;verticalAlign=middle;resizable=0;points=[];autosize=1;strokeColor=none;fillColor=none;" vertex="1" parent="tpnayZtEJHN_1LxH815h-15">
          <mxGeometry x="771" y="162" width="55" height="27" as="geometry" />
        </mxCell>
        <mxCell id="K1SHeTAgsthcZovIU9Qf-10" value="data out" style="text;html=1;align=center;verticalAlign=middle;resizable=0;points=[];autosize=1;strokeColor=none;fillColor=none;" vertex="1" parent="tpnayZtEJHN_1LxH815h-15">
          <mxGeometry x="770" y="363" width="62" height="27" as="geometry" />
        </mxCell>
        <mxCell id="K1SHeTAgsthcZovIU9Qf-12" value="" style="endArrow=none;html=1;rounded=0;" edge="1" parent="tpnayZtEJHN_1LxH815h-15">
          <mxGeometry width="50" height="50" relative="1" as="geometry">
            <mxPoint x="725" y="386" as="sourcePoint" />
            <mxPoint x="745" y="369" as="targetPoint" />
          </mxGeometry>
        </mxCell>
        <mxCell id="K1SHeTAgsthcZovIU9Qf-13" value="16" style="edgeLabel;html=1;align=center;verticalAlign=middle;resizable=0;points=[];" vertex="1" connectable="0" parent="K1SHeTAgsthcZovIU9Qf-12">
          <mxGeometry x="0.437" y="-1" relative="1" as="geometry">
            <mxPoint x="3" y="9" as="offset" />
          </mxGeometry>
        </mxCell>
      </root>
    </mxGraphModel>
  </diagram>
</mxfile>
